<svg width="512" height="512" viewBox="0 0 512 512" fill="none" xmlns="http://www.w3.org/2000/svg">
<g clip-path="url(#clip0_105_2)">
<path d="M256 0C114.615 0 0 114.615 0 256C0 397.385 114.615 512 256 512C397.385 512 512 397.385 512 256C512 114.615 397.385 0 256 0Z" fill="url(#paint0_linear_105_2)"/>
<path d="M256 64C149.969 64 64 149.969 64 256C64 362.031 149.969 448 256 448C362.031 448 448 362.031 448 256C448 149.969 362.031 64 256 64Z" fill="url(#paint1_linear_105_2)"/>
<path d="M256 128C189.812 128 128 189.812 128 256C128 322.188 189.812 384 256 384C322.188 384 384 322.188 384 256C384 189.812 322.188 128 256 128Z" fill="url(#paint2_linear_105_2)"/>
<path d="M298.667 213.333C298.667 235.422 279.422 254.667 257.333 254.667C235.245 254.667 216 235.422 216 213.333C216 191.245 235.245 172 257.333 172C279.422 172 298.667 191.245 298.667 213.333Z" fill="white"/>
<path d="M256 277.333C223.016 277.333 192 298.625 192 320C192 341.375 223.016 362.667 256 362.667C288.984 362.667 320 341.375 320 320C320 298.625 288.984 277.333 256 277.333Z" fill="white"/>
</g>
<defs>
<linearGradient id="paint0_linear_105_2" x1="256" y1="0" x2="256" y2="512" gradientUnits="userSpaceOnUse">
<stop stop-color="#4F46E5"/>
<stop offset="1" stop-color="#A259FF"/>
</linearGradient>
<linearGradient id="paint1_linear_105_2" x1="256" y1="64" x2="256" y2="448" gradientUnits="userSpaceOnUse">
<stop stop-color="#A259FF"/>
<stop offset="1" stop-color="#4F46E5"/>
</linearGradient>
<linearGradient id="paint2_linear_105_2" x1="256" y1="128" x2="256" y2="384" gradientUnits="userSpaceOnUse">
<stop stop-color="#4F46E5"/>
<stop offset="1" stop-color="#A259FF"/>
</linearGradient>
<clipPath id="clip0_105_2">
<rect width="512" height="512" fill="white"/>
</clipPath>
</defs>
</svg>
